HIERARCHY
ROOT Hips
{
	OFFSET 49.077702 -16.991816 96.850403
	CHANNELS 6 Xposition Yposition Zposition Xrotation Yrotation Zrotation
	JOINT spine
	{
		OFFSET 0.000000 -0.458069 7.965683
		CHANNELS 3 Xrotation Yrotation Zrotation
		JOINT spine1
		{
			OFFSET 0.000000 -0.000002 10.243103
			CHANNELS 3 Xrotation Yrotation Zrotation
			JOINT spine2
			{
				OFFSET 0.000000 -0.000002 9.814751
				CHANNELS 3 Xrotation Yrotation Zrotation
				JOINT Neck
				{
					OFFSET 0.000000 -1.201384 25.198601
					CHANNELS 3 Xrotation Yrotation Zrotation
					JOINT Head
					{
						OFFSET 0.000000 0.000000 7.613144
						CHANNELS 3 Xrotation Yrotation Zrotation
						End Site
						{
							OFFSET 0.000000 6.077326 18.428101
						}
					}
				}
				JOINT RightShoulder
				{
					OFFSET -4.132702 0.575449 10.599205
					CHANNELS 3 Xrotation Yrotation Zrotation
					JOINT RightArm
					{
						OFFSET 0.000000 -0.000002 13.901794
						CHANNELS 3 Xrotation Yrotation Zrotation
						JOINT RightArmRoll
						{
							OFFSET 0.000000 0.000000 7.017883
							CHANNELS 3 Xrotation Yrotation Zrotation
							JOINT RightForeArm
							{
								OFFSET 0.000000 -0.000004 20.440598
								CHANNELS 3 Xrotation Yrotation Zrotation
								JOINT RightForeArmRoll
								{
									OFFSET 0.000000 -0.000002 7.875168
									CHANNELS 3 Xrotation Yrotation Zrotation
									JOINT RightHand
									{
										OFFSET 0.000000 -0.000002 15.803696
										CHANNELS 3 Xrotation Yrotation Zrotation
										End Site
										{
											OFFSET 0.000000 0.000000 0.100006
										}
									}
								}
							}
						}
					}
				}
				JOINT LeftShoulder
				{
					OFFSET 4.132702 0.575449 10.599205
					CHANNELS 3 Xrotation Yrotation Zrotation
					JOINT LeftArm
					{
						OFFSET 0.000000 -0.000002 13.901794
						CHANNELS 3 Xrotation Yrotation Zrotation
						JOINT LeftArmRoll
						{
							OFFSET 0.000000 0.000000 7.017883
							CHANNELS 3 Xrotation Yrotation Zrotation
							JOINT LeftForeArm
							{
								OFFSET 0.000000 -0.000004 20.440598
								CHANNELS 3 Xrotation Yrotation Zrotation
								JOINT LeftForeArmRoll
								{
									OFFSET 0.000000 -0.000002 7.875168
									CHANNELS 3 Xrotation Yrotation Zrotation
									JOINT LeftHand
									{
										OFFSET 0.000000 -0.000002 15.803696
										CHANNELS 3 Xrotation Yrotation Zrotation
										End Site
										{
											OFFSET 0.000000 0.000000 0.100006
										}
									}
								}
							}
						}
					}
				}
			}
		}
	}
	JOINT RightUpLeg
	{
		OFFSET -7.060482 1.086100 -1.294701
		CHANNELS 3 Xrotation Yrotation Zrotation
		JOINT RightUpLegRoll
		{
			OFFSET 0.000000 -0.000003 18.530800
			CHANNELS 3 Xrotation Yrotation Zrotation
			JOINT RightLeg
			{
				OFFSET 0.000000 0.000003 -22.947601
				CHANNELS 3 Xrotation Yrotation Zrotation
				JOINT RightLegRoll
				{
					OFFSET 0.000000 -0.000004 23.022598
					CHANNELS 3 Xrotation Yrotation Zrotation
					JOINT RightFoot
					{
						OFFSET 0.000000 -0.000003 19.162506
						CHANNELS 3 Xrotation Yrotation Zrotation
						JOINT RightToeBase
						{
							OFFSET 0.000000 -0.000003 16.018799
							CHANNELS 3 Xrotation Yrotation Zrotation
							End Site
							{
								OFFSET 0.006790 0.894205 7.757812
							}
						}
					}
				}
			}
		}
	}
	JOINT LeftUpLeg
	{
		OFFSET 7.060482 1.086100 -1.294701
		CHANNELS 3 Xrotation Yrotation Zrotation
		JOINT LeftUpLegRoll
		{
			OFFSET 0.000000 -0.000003 18.530899
			CHANNELS 3 Xrotation Yrotation Zrotation
			JOINT LeftLeg
			{
				OFFSET 0.000000 -0.000004 22.947502
				CHANNELS 3 Xrotation Yrotation Zrotation
				JOINT LeftLegRoll
				{
					OFFSET 0.000000 -0.000004 23.235504
					CHANNELS 3 Xrotation Yrotation Zrotation
					JOINT LeftFoot
					{
						OFFSET 0.000000 -0.000004 18.949600
						CHANNELS 3 Xrotation Yrotation Zrotation
						JOINT LeftToeBase
						{
							OFFSET 0.000000 -0.000002 16.018799
							CHANNELS 3 Xrotation Yrotation Zrotation
							End Site
							{
								OFFSET -0.030430 0.894204 7.757812
							}
						}
					}
				}
			}
		}
	}
}
MOTION
Frames: 6
Frame Time: 0.041667
47.250195 -13.221018 96.130409 -3.428069 -0.716307 18.506392 -0.058457 -0.501469 0.279231 3.888451 -0.989526 0.562722 5.533607 -0.982712 0.574530 7.910739 18.952675 1.147509 15.451916 -16.229808 3.399674 4.001894 -57.935311 4.797208 -73.082969 -129.496261 -83.117597 -0.000007 0.000007 0.000001 118.119994 0.078242 -10.702591 -0.000005 0.000012 -3.000219 -5.000005 -8.000075 -0.000025 -28.457549 56.914057 33.786887 -68.210791 139.324876 97.209151 0.000001 -0.000002 -0.000006 128.474342 -2.408775 20.473683 0.000020 -0.000009 2.999988 -5.000022 7.999932 -0.000024 3.756199 -176.787904 3.753448 -179.999991 0.000006 -1.209005 170.441060 -1.234618 -0.661892 -0.000003 0.000001 0.208836 70.657235 6.906899 1.971954 26.357201 -7.344878 1.334422 -9.132303 172.931797 1.356285 -0.000020 -0.000006 -1.260752 -14.995890 -2.293674 0.086402 -0.000007 -0.000001 0.029211 66.723428 -7.084075 -1.807067 25.456933 7.348641 -0.000005 
47.246101 -13.251519 96.138199 -3.441115 -0.724220 18.413649 -0.056605 -0.505045 0.268442 3.892079 -0.995421 0.541200 5.537228 -0.988865 0.553080 8.023463 18.927390 1.154730 15.350575 -16.158923 3.396408 3.996243 -58.097070 4.766309 -72.522921 -129.419900 -83.021093 -0.000007 0.000005 0.000001 118.611767 0.145100 -11.005002 -0.000006 0.000013 -3.000219 -5.000003 -8.000071 -0.000030 -28.311493 56.948973 33.610070 -68.250160 139.184352 97.017045 0.000004 0.000003 -0.000007 128.526128 -2.388402 20.404789 0.000018 -0.000009 2.999992 -5.000023 7.999932 -0.000028 3.762531 -176.768970 3.767030 -179.999991 0.000006 -1.209010 170.436675 -1.235586 -0.662151 -0.000003 0.000001 0.208605 70.641744 6.907391 1.971601 26.364168 -7.344721 1.344619 -9.071004 172.912837 1.313932 -0.000020 -0.000005 -1.262060 -14.979389 -2.266761 0.090333 -0.000007 -0.000001 0.027413 66.728407 -7.082786 -1.809980 25.456931 7.348639 -0.000005 
47.249401 -13.261518 96.144089 -3.453155 -0.731532 18.319160 -0.055095 -0.508499 0.257775 3.895026 -1.001212 0.519905 5.540179 -0.994910 0.531855 8.136509 18.897568 1.161814 15.250769 -16.084914 3.393113 3.988374 -58.258372 4.732979 -71.970987 -129.348934 -82.928496 -0.000006 0.000006 -0.000001 119.087285 0.212451 -11.307110 -0.000007 0.000006 -3.000228 -5.000005 -8.000073 -0.000026 -28.163416 56.982568 33.431020 -68.289604 139.044429 96.826271 0.000002 0.000001 -0.000007 128.578666 -2.366767 20.337423 0.000019 -0.000004 2.999990 -5.000019 7.999933 -0.000022 3.766950 -176.749040 3.780480 -179.999991 0.000005 -1.210003 170.432167 -1.237549 -0.662582 -0.000002 0.000001 0.208354 70.626157 6.907904 1.971359 26.370723 -7.344563 1.354121 -9.011069 172.893876 1.271541 -0.000021 -0.000005 -1.263338 -14.963397 -2.239616 0.094272 -0.000007 -0.000001 0.025597 66.733503 -7.081553 -1.812697 25.456931 7.348647 -0.000010 
47.252197 -13.292417 96.147209 -3.463786 -0.738017 18.223230 -0.054088 -0.511764 0.247315 3.896952 -1.006807 0.499020 5.542120 -1.000752 0.511040 8.251105 18.862358 1.168067 15.152090 -16.007899 3.389319 3.977973 -58.419981 4.696778 -71.434818 -129.275742 -82.850017 -0.000006 0.000003 -0.000000 119.548596 0.279631 -11.609744 -0.000007 0.000010 -3.000229 -5.000006 -8.000070 -0.000029 -28.013299 57.014820 33.249672 -68.328113 138.906623 96.635497 0.000001 -0.000003 -0.000005 128.632133 -2.344489 20.269869 0.000019 -0.000007 2.999988 -5.000025 7.999930 -0.000027 3.769009 -176.729082 3.793500 -179.999991 0.000005 -1.210003 170.427509 -1.239498 -0.663015 -0.000002 0.000001 0.208077 70.610796 6.908412 1.970898 26.376778 -7.344397 1.362868 -8.953150 172.874957 1.229500 -0.000020 -0.000005 -1.264599 -14.948199 -2.212478 0.098189 -0.000008 -0.000001 0.023770 66.738803 -7.080302 -1.815499 25.456931 7.348651 0.000000 
47.251297 -13.303718 96.154297 -3.472652 -0.743451 18.126084 -0.053762 -0.514770 0.237152 3.897528 -1.012114 0.478735 5.542687 -1.006304 0.490818 8.368431 18.820924 1.172792 15.054135 -15.928005 3.384584 3.964762 -58.582567 4.657245 -70.918086 -129.193301 -82.791127 -0.000004 0.000004 0.000002 119.997695 0.345995 -11.913696 -0.000005 0.000014 -3.000241 -5.000004 -8.000072 -0.000027 -27.861199 57.045508 33.066001 -68.368725 138.770579 96.449586 -0.000000 -0.000000 -0.000005 128.687007 -2.321604 20.202088 0.000020 -0.000004 2.999990 -5.000024 7.999933 -0.000023 3.768255 -176.709097 3.805839 -179.999991 0.000005 -1.211002 170.422563 -1.240477 -0.663289 -0.000003 0.000001 0.207774 70.595647 6.908916 1.970626 26.382214 -7.344234 1.370833 -8.897942 172.856119 1.188207 -0.000021 -0.000005 -1.265809 -14.933712 -2.185578 0.102077 -0.000007 -0.000001 0.021953 66.744226 -7.079104 -1.818099 25.456931 7.348648 0.000002 
47.264797 -13.320816 96.158600 -3.479357 -0.747619 18.027943 -0.054290 -0.517449 0.227381 3.896405 -1.017034 0.459215 5.541567 -1.011462 0.471356 8.489719 18.772413 1.175349 14.956499 -15.845171 3.378388 3.948451 -58.746751 4.613968 -70.425602 -129.094537 -82.758281 -0.000007 0.000006 -0.000000 120.436589 0.411367 -12.219908 -0.000005 0.000010 -3.000241 -5.000008 -8.000073 -0.000032 -27.707029 57.074744 32.879916 -68.410553 138.638005 96.267193 0.000003 -0.000003 -0.000006 128.743725 -2.297486 20.134896 0.000017 -0.000008 2.999986 -5.000024 7.999935 -0.000022 3.764227 -176.690150 3.817184 -179.999991 0.000006 -1.211001 170.417304 -1.242425 -0.663734 -0.000002 0.000001 0.207439 70.580798 6.909418 1.970233 26.387165 -7.344076 1.377990 -8.846113 172.837322 1.148056 -0.000020 -0.000005 -1.266969 -14.920335 -2.159188 0.105883 -0.000007 -0.000000 0.020155 66.749772 -7.077989 -1.820515 25.456935 7.348654 -0.000000 
